# AST/ASF file generated using VICON BodyLanguage
# -----------------------------------------------
:version 1.10
:name VICON
:units
  mass 1.0
  length 0.45
  angle deg
:documentation
   .ast/.asf automatically generated from VICON data using
   VICON BodyBuilder and BodyLanguage model FoxedUp or BRILLIANT.MOD
:root
   order TX TY TZ RX RY RZ
   axis XYZ
   position 0 0 0  
   orientation 0 0 0 
:bonedata
  begin
     id 1 
     name lhipjoint
     direction 0.643824 -0.71708 0.266994 
     length 2.52133 
     axis 0 0 0  XYZ
  end
  begin
     id 2 
     name lfemur
     direction 0.34202 -0.939693 0  
     length 7.51824  
     axis 0 0 20  XYZ
    dof rx ry rz
    limits (-160.0 20.0)
           (-70.0 70.0)
           (-60.0 70.0)
  end
  begin
     id 3 
     name ltibia
     direction 0.34202 -0.939693 0   
     length 7.3685   
     axis 0 0 20   XYZ
    dof rx
    limits (-10.0 170.0)
  end
  begin
     id 4 
     name lfoot
     direction 0.105419 -0.289636 0.951314   
     length 2.20972   
     axis -90 7.62852e-016 20   XYZ
    dof rx rz
    limits (-45.0 90.0)
           (-70.0 20.0)
  end
  begin
     id 5 
     name ltoes
     direction 1.53549e-011 -4.21833e-011 1   
     length 1.10139   
     axis -90 7.62852e-016 20   XYZ
    dof rx
    limits (-90.0 20.0)
  end
  begin
     id 6 
     name rhipjoint
     direction -0.608823 -0.743445 0.276811   
     length 2.43192  
     axis 0 0 0  XYZ 
  end
  begin
     id 7 
     name rfemur
     direction -0.34202 -0.939693 0   
     length 7.69715   
     axis 0 0 -20   XYZ
    dof rx ry rz
    limits (-160.0 20.0)
           (-70.0 70.0)
           (-70.0 60.0)
  end
  begin
     id 8 
     name rtibia
     direction -0.34202 -0.939693 0   
     length 7.44924   
     axis 0 0 -20   XYZ
    dof rx
    limits (-10.0 170.0)
 end
 begin
     id 9 
     name rfoot
     direction -0.103614 -0.284677 0.953007   
     length 2.22623  
     axis -90 -7.62852e-016 -20   XYZ
    dof rx rz
    limits (-45.0 90.0)
           (-20.0 70.0)
  end
  begin
     id 10 
     name rtoes
     direction -1.53537e-011 -4.22026e-011 1   
     length 1.11   
     axis -90 -7.62852e-016 -20   XYZ
    dof rx
    limits (-90.0 20.0)
  end
  begin
     id 11 
     name lowerback
     direction -0.0101212 0.99662 -0.0815298   
     length 2.08277   
     axis 0 0 0   XYZ
    dof rx ry rz
    limits (-20.0 45.0)
           (-30.0 30.0)
           (-30.0 30.0)
  end
  begin
     id 12 
     name upperback
     direction 0.024314 0.999591 -0.0150645   
     length 2.08524   
     axis 0 0 0   XYZ
    dof rx ry rz
    limits (-20.0 45.0)
           (-30.0 30.0)
           (-30.0 30.0)
  end
  begin
     id 13 
     name thorax
     direction 0.0285959 0.999323 0.0231357   
     length 2.09645   
     axis 0 0 0   XYZ
    dof rx ry rz
    limits (-20.0 45.0)
           (-30.0 30.0)
           (-30.0 30.0)
  end
  begin
     id 14 
     name lowerneck
     direction -0.065512 0.979301 0.191515   
     length 1.63798   
     axis 0 0 0   XYZ
    dof rx ry rz
    limits (-20.0 45.0)
           (-30.0 30.0)
           (-30.0 30.0)
  end
  begin
     id 15 
     name upperneck
     direction 0.0498479 0.98191 -0.182667   
     length 1.68731   
     axis 0 0 0   XYZ
    dof rx ry rz
    limits (-20.0 45.0)
           (-30.0 30.0)
           (-30.0 30.0)
  end
  begin
     id 16
     name head
     direction 0.0230358 0.996257 -0.0833175  
     length 1.69785  
     axis 0 0 0   XYZ
    dof rx ry rz
    limits (-20.0 45.0)
           (-30.0 30.0)
           (-30.0 30.0)
  end
  begin
     id 17 
     name lclavicle
     direction 0.967963 0.201165 -0.150269  
     length 3.63976  
     axis 0 0 0   XYZ
    dof ry rz
    limits (-20.0 10.0)
           (0.0 20.0)
  end
  begin
     id 18 
     name lhumerus
     direction 1 -4.48954e-011 -2.92837e-028   
     length 5.32462   
     axis 180 -30 -90   XYZ
    dof rx ry rz
    limits (-60.0 90.0)
           (-90.0 90.0)
           (-90.0 90.0)
  end
  begin
     id 19
     name lradius
     direction 1 -4.48958e-011 -6.39511e-027   
     length 3.48402   
     axis 180 -30 -90   XYZ
    dof rx
    limits (-10.0 170.0)
  end
  begin
     id 20
     name lwrist
     direction 1 -4.48975e-011 -1.1413e-026   
     length 1.74201   
     axis 6.88575e-015 90 90   XYZ
    dof ry
    limits (-180.0 0.0)
 end
  begin
     id 21 
     name lhand
     direction 1 -4.48899e-011 -2.28192e-026   
     length 0.572476   
     axis 1.45643e-014 90 90   XYZ
    dof rx rz
    limits (-90.0 90.0)
           (-45.0 45.0)
  end
  begin
     id 22 
     name lfingers
     direction 1 -4.49155e-011 -4.5684e-026   
     length 0.461545   
     axis 2.91283e-014 90 90   XYZ
    dof rx
    limits (0.0 90.0)
  end
  begin
     id 23
     name lthumb
     direction 0.707107 -6.34943e-011 0.707107   
     length 0.662688   
     axis -90 45 -2.25915e-014   XYZ
    dof rx rz
    limits (-45.0 45.0)
           (-45.0 45.0)
  end
  begin
     id 24 
     name rclavicle
     direction -0.964103 0.264019 -0.0282629   
     length 3.54491  
     axis 0 0 0   XYZ 
    dof ry rz
    limits (-10.0 20.0)
           (-20.0 0.0)
  end
  begin
     id 25 
     name rhumerus
     direction -1 -4.48964e-011 -2.45032e-027  
     length 5.33589   
     axis 180 30 90   XYZ
    dof rx ry rz
    limits (-90.0 60.0)
           (-90.0 90.0)
           (-90.0 90.0)
  end
  begin
     id 26 
     name rradius
     direction -1 -4.48987e-011 -1.55093e-027   
     length 3.64134   
     axis 180 30 90   XYZ
    dof rx
    limits (-10.0 170.0)
  end
  begin
     id 27 
     name rwrist
     direction -1 -4.4897e-011 -1.14128e-026   
     length 1.82067   
     axis 6.88575e-015 -90 -90   XYZ
    dof ry
    limits (-180.0 0.0)
  end
  begin
     id 28
     name rhand
     direction -1 -4.49021e-011 -2.28301e-026   
     length 0.734811   
     axis 1.45643e-014 -90 -90   XYZ
    dof rx rz
    limits (-90.0 90.0)
           (-45.0 45.0)
  end
  begin
     id 29
     name rfingers
     direction -1 -4.48862e-011 -4.56319e-026   
     length 0.592424   
     axis 2.91283e-014 -90 -90   XYZ
    dof rx
    limits (0.0 90.0)
  end
  begin
     id 30
     name rthumb
     direction -0.707107 -6.34978e-011 0.707107   
     length 0.850605   
     axis -90 -45 2.25915e-014   XYZ
    dof rx rz
    limits (-45.0 45.0)
           (-45.0 45.0)
  end
:hierarchy
  begin
    root lhipjoint rhipjoint lowerback
    lhipjoint lfemur
    lfemur ltibia
    ltibia lfoot
    lfoot ltoes
    rhipjoint rfemur
    rfemur rtibia
    rtibia rfoot
    rfoot rtoes
    lowerback upperback
    upperback thorax
    thorax lowerneck lclavicle rclavicle
    lowerneck upperneck
    upperneck head
    lclavicle lhumerus
    lhumerus lradius
    lradius lwrist
    lwrist lhand lthumb
    lhand lfingers
    rclavicle rhumerus
    rhumerus rradius
    rradius rwrist
    rwrist rhand rthumb
    rhand rfingers
  end

#!OML:ASF F:\VICON\USERDATA\INSTALL\rory3\rory3.ASF
:FULLY-SPECIFIED
:DEGREES
208
root -1.96458 19.101 -1.60302 -12.2867 -69.8427 10.4768
lowerback 6.47254 -0.86351 -5.01184
upperback -6.96924 -1.63528 2.17544
thorax -10.9518 -0.317337 5.44274
lowerneck -28.22 -6.01138 -13.338
upperneck -0.713954 -4.76418 11.1399
head 4.66086 -1.7268 5.1907
rclavicle 1.98785e-015 -2.46493e-014
rhumerus 74.0118 -17.0286 -26.4725
rradius 70.1451
rwrist 14.0037
rhand -21.7378 4.16648
rfingers 7.12502
rthumb 4.662 -25.7622
lclavicle 1.98785e-015 -2.46493e-014
lhumerus 95.3141 28.408 45.9686
lradius 23.8289
lwrist -20.6916
lhand -9.3199 27.1622
lfingers 7.12502
lthumb 16.6385 56.469
rfemur -9.63515 8.37067 11.9774
rtibia 35.418
rfoot 19.984 -6.53598
rtoes 19.8579
lfemur -5.44018 -5.07831 -22.5788
ltibia 29.403
lfoot 13.4551 5.87266
ltoes -2.306
209
root -1.95292 19.0854 -1.54916 -12.8092 -70.156 11.0382
lowerback 6.40466 -0.782229 -5.11697
upperback -7.00029 -1.5115 2.45703
thorax -10.9572 -0.235287 5.79178
lowerneck -28.0212 -6.25629 -14.1263
upperneck -0.678646 -4.89082 11.6164
head 4.6979 -1.76069 5.46178
rclavicle 2.5842e-014 1.43125e-014
rhumerus 73.3689 -17.2652 -26.2435
rradius 71.6839
rwrist 13.3441
rhand -21.4374 4.04919
rfingers 7.12502
rthumb 4.95205 -25.8729
lclavicle 2.5842e-014 1.43125e-014
lhumerus 94.4505 28.5597 45.4204
lradius 24.1806
lwrist -19.3399
lhand -9.12403 28.5447
lfingers 7.12502
lthumb 16.827 57.8356
rfemur -9.8237 8.69761 11.6207
rtibia 35.7093
rfoot 19.8518 -6.17595
rtoes 19.7196
lfemur -5.11645 -5.31339 -22.9717
ltibia 29.1134
lfoot 12.9605 6.40658
ltoes -2.03281
210
root -1.9419 19.071 -1.49641 -13.2729 -70.4021 11.5731
lowerback 6.35476 -0.730668 -5.20752
upperback -7.12086 -1.4342 2.7069
thorax -11.0713 -0.172658 6.11017
lowerneck -27.7821 -6.38563 -14.6328
upperneck -0.563736 -4.93446 11.7172
head 4.72208 -1.78049 5.57155
rclavicle 1.98785e-014 -3.18055e-014
rhumerus 72.6837 -17.3535 -26.0777
rradius 73.1415
rwrist 12.8574
rhand -21.3283 3.76923
rfingers 7.12502
rthumb 5.05739 -26.1504
lclavicle 1.98785e-014 -3.18055e-014
lhumerus 93.2162 28.6971 44.3239
lradius 24.6291
lwrist -17.4007
lhand -9.10349 29.0956
lfingers 7.12502
lthumb 16.8468 58.3848
rfemur -10.0499 9.06464 11.2551
rtibia 36.0417
rfoot 19.5711 -5.97397
rtoes 19.972
lfemur -4.84787 -5.43819 -23.3266
ltibia 28.7814
lfoot 12.5079 6.75954
ltoes -2.15504
211
root -1.93033 19.0543 -1.44366 -13.8176 -70.6433 12.1139
lowerback 6.34414 -0.746428 -5.23129
upperback -7.16494 -1.45417 2.77675
thorax -11.1111 -0.174957 6.20532
lowerneck -27.6553 -6.23146 -14.3103
upperneck -0.452491 -4.83119 11.4213
head 4.70829 -1.7526 5.43306
rclavicle -4.96962e-014 -1.11319e-014
rhumerus 72.0371 -17.4851 -26.4112
rradius 74.4754
rwrist 12.5598
rhand -21.2336 3.29661
rfingers 7.12502
rthumb 5.14875 -26.6208
lclavicle -4.96962e-014 -1.11319e-014
lhumerus 92.0244 28.8651 42.9137
lradius 25.1752
lwrist -15.8445
lhand -8.91527 29.4275
lfingers 7.12502
lthumb 17.028 58.7012
rfemur -10.2073 9.38958 10.9327
rtibia 36.3732
rfoot 19.337 -5.71188
rtoes 19.569
lfemur -4.51102 -5.48355 -23.6951
ltibia 28.4719
lfoot 12.1739 6.76081
ltoes -3.797
212
root -1.91962 19.0342 -1.3935 -14.5378 -70.7961 12.9305
lowerback 6.24073 -0.746186 -5.46219
upperback -7.18543 -1.46489 2.92002
thorax -11.0671 -0.156109 6.49418
lowerneck -27.6155 -6.45319 -14.7658
upperneck -0.450297 -5.02126 11.8853
head 4.75873 -1.81529 5.63863
rclavicle -9.93923e-015 9.54166e-015
rhumerus 71.4037 -17.8557 -26.5823
rradius 75.7878
rwrist 12.4313
rhand -21.0097 3.40675
rfingers 7.12502
rthumb 5.36503 -26.5053
lclavicle -9.93923e-015 9.54166e-015
lhumerus 90.9875 29.0669 41.8728
lradius 25.657
lwrist -14.6441
lhand -8.80088 29.8426
lfingers 7.12502
lthumb 17.1381 59.1067
rfemur -10.4624 9.54481 10.5416
rtibia 36.7046
rfoot 19.2363 -5.07186
rtoes 17.7527
lfemur -4.31549 -5.49895 -24.1295
ltibia 28.1862
lfoot 11.894 6.1523
ltoes -6.47887
213
root -1.90904 19.0161 -1.34294 -14.771 -70.9812 13.2233
lowerback 6.1476 -0.885467 -5.47323
upperback -7.20514 -1.6463 2.98494
thorax -11.003 -0.243046 6.59562
lowerneck -27.598 -6.33997 -14.5153
upperneck -0.47497 -4.97423 12.031
head 4.74641 -1.78366 5.65415
rclavicle -2.54444e-014 1.74931e-014
rhumerus 70.9842 -17.9819 -27.1963
rradius 76.9547
rwrist 12.4368
rhand -20.7794 3.23445
rfingers 7.12502
rthumb 5.58737 -26.6719
lclavicle -2.54444e-014 1.74931e-014
lhumerus 89.837 29.339 40.4548
lradius 26.092
lwrist -14.0175
lhand -9.05531 30.1502
lfingers 7.12502
lthumb 16.8932 59.4355
rfemur -10.6852 9.83454 10.3264
rtibia 37.0349
rfoot 19.0124 -4.76345
rtoes 17.302
lfemur -4.10035 -5.66202 -24.3607
ltibia 27.9098
lfoot 11.5319 5.59658
ltoes -8.49474
214
root -1.89585 19.0019 -1.29223 -14.4005 -71.185 12.9183
lowerback 6.03537 -1.089 -5.23013
upperback -7.22355 -1.89238 2.9656
thorax -10.9198 -0.387538 6.46576
lowerneck -27.5558 -5.99802 -13.6781
upperneck -0.560746 -4.78464 11.7807
head 4.66393 -1.71019 5.45925
rclavicle 3.22031e-014 2.22639e-014
rhumerus 70.7271 -17.9439 -28.2375
rradius 77.8922
rwrist 12.6685
rhand -20.5146 3.03197
rfingers 7.12502
rthumb 5.84301 -26.8675
lclavicle 3.22031e-014 2.22639e-014
lhumerus 88.7247 29.6135 38.8315
lradius 26.6017
lwrist -13.6509
lhand -9.54405 30.0935
lfingers 7.12502
lthumb 16.4227 59.4183
rfemur -10.9301 10.3572 10.3008
rtibia 37.3361
rfoot 18.5681 -4.87314
rtoes 17.9346
lfemur -3.93758 -6.0145 -24.3727
ltibia 27.6491
lfoot 11.1134 5.50355
ltoes -9.22561
215
root -1.88197 18.9801 -1.24469 -14.8492 -71.3528 13.3918
lowerback 5.99366 -0.96258 -5.3638
upperback -7.1869 -1.71588 3.1727
thorax -10.8753 -0.28386 6.74276
lowerneck -27.6374 -6.41802 -14.5782
upperneck -0.502758 -5.05983 12.0969
head 4.75799 -1.82187 5.67514
rclavicle 6.75868e-015 -7.95139e-015
rhumerus 70.071 -18.5017 -27.9603
rradius 78.9255
rwrist 12.3954
rhand -20.2521 2.75418
rfingers 7.12502
rthumb 6.09646 -27.1381
lclavicle 6.75868e-015 -7.95139e-015
lhumerus 88.3876 29.5577 39.0496
lradius 26.8343
lwrist -14.1802
lhand -10.551 29.662
lfingers 7.12502
lthumb 15.453 59.0643
rfemur -11.0764 10.6282 10.019
rtibia 37.6017
rfoot 18.2795 -4.5397
rtoes 17.3156
lfemur -3.71485 -6.23809 -24.6594
ltibia 27.4026
lfoot 10.6795 5.54904
ltoes -9.63252
216
root -1.86934 18.9622 -1.19501 -14.9297 -71.5501 13.4529
lowerback 5.93573 -0.837441 -5.3238
upperback -7.11611 -1.51603 3.43031
thorax -10.7887 -0.183378 6.9712
lowerneck -27.7402 -6.68336 -15.3118
upperneck -0.379908 -5.17265 12.2804
head 4.84699 -1.86271 5.84045
rclavicle 8.74653e-015 -2.54444e-014
rhumerus 69.2752 -19.4059 -27.4848
rradius 79.9887
rwrist 11.7371
rhand -20.3419 2.61856
rfingers 7.12502
rthumb 6.00974 -27.2762
lclavicle 8.74653e-015 -2.54444e-014
lhumerus 87.9196 29.5937 39.0905
lradius 27.0487
lwrist -14.861
lhand -11.4659 29.4627
lfingers 7.12502
lthumb 14.5716 58.9308
rfemur -11.1349 10.7774 9.90431
rtibia 37.8033
rfoot 18.0135 -3.91566
rtoes 15.8582
lfemur -3.49766 -6.33031 -24.7983
ltibia 27.2043
lfoot 10.2452 5.31253
ltoes -11.3132
217
root -1.85547 18.9458 -1.14704 -14.8828 -71.7379 13.4197
lowerback 5.88763 -0.923453 -5.26777
upperback -7.06926 -1.61258 3.55952
thorax -10.6889 -0.23449 7.09127
lowerneck -27.7355 -6.54377 -15.1266
upperneck -0.578929 -5.02382 11.9989
head 4.74465 -1.81261 5.73439
rclavicle 4.49253e-014 1.27222e-014
rhumerus 68.779 -20.1265 -27.7167
rradius 80.9373
rwrist 10.9681
rhand -20.5846 2.29227
rfingers 7.12502
rthumb 5.77542 -27.609
lclavicle 4.49253e-014 1.27222e-014
lhumerus 87.0714 29.8632 38.1504
lradius 27.2759
lwrist -15.2309
lhand -11.9489 29.1962
lfingers 7.12502
lthumb 14.1062 58.6974
rfemur -11.1705 11.208 9.80516
rtibia 37.9821
rfoot 17.4477 -3.66529
rtoes 15.6578
lfemur -3.34441 -6.42905 -24.8954
ltibia 27.0402
lfoot 9.89692 5.22164
ltoes -12.3024
